STARTFONT 2.1
COMMENT converted Oberon font (using FontToBDF by R.Crelier 10.1.91)
FONT Times10i.Scn.Fnt
SIZE 10 75 75
FONTBOUNDINGBOX  9 12 0 -3
STARTPROPERTIES 3
FONT_ASCENT 9
FONT_DESCENT 3
DEFAULT_CHAR 0
ENDPROPERTIES
CHARS 121
STARTCHAR c0
ENCODING -1 0
SWIDTH 0 0
DWIDTH 0 0
BBX 0 0 0 0
BITMAP
ENDCHAR
STARTCHAR c9
ENCODING -1 9
SWIDTH 387 0
DWIDTH 12 0
BBX 0 0 0 0
BITMAP
ENDCHAR
STARTCHAR c32
ENCODING -1 32
SWIDTH 96 0
DWIDTH 3 0
BBX 0 0 0 0
BITMAP
ENDCHAR
STARTCHAR c33
ENCODING -1 33
SWIDTH 129 0
DWIDTH 4 0
BBX 3 8 1 0
BITMAP
20
20
60
40
40
00
80
80
ENDCHAR
STARTCHAR c34
ENCODING -1 34
SWIDTH 129 0
DWIDTH 4 0
BBX 3 3 1 5
BITMAP
A0
A0
A0
ENDCHAR
STARTCHAR c35
ENCODING -1 35
SWIDTH 193 0
DWIDTH 6 0
BBX 6 8 0 0
BITMAP
28
28
7C
28
50
F8
50
50
ENDCHAR
STARTCHAR c36
ENCODING -1 36
SWIDTH 193 0
DWIDTH 6 0
BBX 6 10 0 -1
BITMAP
10
3C
54
50
20
10
28
A8
F0
20
ENDCHAR
STARTCHAR c37
ENCODING -1 37
SWIDTH 225 0
DWIDTH 7 0
BBX 6 8 1 0
BITMAP
68
A8
B0
D0
2C
34
54
58
ENDCHAR
STARTCHAR c38
ENCODING -1 38
SWIDTH 193 0
DWIDTH 6 0
BBX 6 8 0 0
BITMAP
0C
14
18
30
54
98
B0
D8
ENDCHAR
STARTCHAR c39
ENCODING -1 39
SWIDTH 64 0
DWIDTH 2 0
BBX 1 3 1 5
BITMAP
80
80
80
ENDCHAR
STARTCHAR c40
ENCODING -1 40
SWIDTH 161 0
DWIDTH 5 0
BBX 4 10 0 -2
BITMAP
10
20
40
40
80
80
80
80
80
40
ENDCHAR
STARTCHAR c41
ENCODING -1 41
SWIDTH 161 0
DWIDTH 5 0
BBX 4 10 0 -2
BITMAP
20
10
10
10
10
10
20
20
40
80
ENDCHAR
STARTCHAR c42
ENCODING -1 42
SWIDTH 193 0
DWIDTH 6 0
BBX 6 6 0 0
BITMAP
10
54
38
70
A8
20
ENDCHAR
STARTCHAR c43
ENCODING -1 43
SWIDTH 193 0
DWIDTH 6 0
BBX 6 7 0 0
BITMAP
10
10
10
FC
20
20
20
ENDCHAR
STARTCHAR c44
ENCODING -1 44
SWIDTH 64 0
DWIDTH 2 0
BBX 2 4 0 -3
BITMAP
40
40
40
80
ENDCHAR
STARTCHAR c45
ENCODING -1 45
SWIDTH 96 0
DWIDTH 3 0
BBX 3 1 0 3
BITMAP
E0
ENDCHAR
STARTCHAR c46
ENCODING -1 46
SWIDTH 64 0
DWIDTH 2 0
BBX 1 2 1 0
BITMAP
80
80
ENDCHAR
STARTCHAR c47
ENCODING -1 47
SWIDTH 161 0
DWIDTH 5 0
BBX 4 8 0 0
BITMAP
10
10
20
20
40
40
80
80
ENDCHAR
STARTCHAR c48
ENCODING -1 48
SWIDTH 161 0
DWIDTH 5 0
BBX 5 8 0 0
BITMAP
38
48
48
88
88
90
90
E0
ENDCHAR
STARTCHAR c49
ENCODING -1 49
SWIDTH 161 0
DWIDTH 5 0
BBX 3 8 1 0
BITMAP
20
E0
20
20
40
40
40
E0
ENDCHAR
STARTCHAR c50
ENCODING -1 50
SWIDTH 161 0
DWIDTH 5 0
BBX 5 8 0 0
BITMAP
38
48
08
10
10
20
40
F0
ENDCHAR
STARTCHAR c51
ENCODING -1 51
SWIDTH 161 0
DWIDTH 5 0
BBX 5 8 0 0
BITMAP
38
08
08
70
10
10
A0
C0
ENDCHAR
STARTCHAR c52
ENCODING -1 52
SWIDTH 161 0
DWIDTH 5 0
BBX 5 8 0 0
BITMAP
08
18
28
50
90
F8
20
20
ENDCHAR
STARTCHAR c53
ENCODING -1 53
SWIDTH 161 0
DWIDTH 5 0
BBX 5 8 0 0
BITMAP
78
40
80
E0
10
10
20
C0
ENDCHAR
STARTCHAR c54
ENCODING -1 54
SWIDTH 161 0
DWIDTH 5 0
BBX 5 8 0 0
BITMAP
18
20
40
50
B0
90
A0
C0
ENDCHAR
STARTCHAR c55
ENCODING -1 55
SWIDTH 161 0
DWIDTH 5 0
BBX 5 8 0 0
BITMAP
78
08
10
20
20
40
80
80
ENDCHAR
STARTCHAR c56
ENCODING -1 56
SWIDTH 161 0
DWIDTH 5 0
BBX 5 8 0 0
BITMAP
38
48
48
30
60
90
90
E0
ENDCHAR
STARTCHAR c57
ENCODING -1 57
SWIDTH 161 0
DWIDTH 5 0
BBX 5 8 0 0
BITMAP
18
28
48
68
50
10
20
C0
ENDCHAR
STARTCHAR c58
ENCODING -1 58
SWIDTH 96 0
DWIDTH 3 0
BBX 2 6 1 0
BITMAP
40
40
00
00
80
80
ENDCHAR
STARTCHAR c59
ENCODING -1 59
SWIDTH 96 0
DWIDTH 3 0
BBX 3 9 0 -3
BITMAP
20
20
00
00
00
40
40
40
80
ENDCHAR
STARTCHAR c60
ENCODING -1 60
SWIDTH 161 0
DWIDTH 5 0
BBX 5 6 0 0
BITMAP
08
30
40
80
40
30
ENDCHAR
STARTCHAR c61
ENCODING -1 61
SWIDTH 193 0
DWIDTH 6 0
BBX 6 3 0 2
BITMAP
7C
00
F8
ENDCHAR
STARTCHAR c62
ENCODING -1 62
SWIDTH 161 0
DWIDTH 5 0
BBX 5 6 0 0
BITMAP
60
10
08
10
60
80
ENDCHAR
STARTCHAR c63
ENCODING -1 63
SWIDTH 161 0
DWIDTH 5 0
BBX 4 8 1 0
BITMAP
70
10
20
40
40
00
80
80
ENDCHAR
STARTCHAR c64
ENCODING -1 64
SWIDTH 322 0
DWIDTH 10 0
BBX 8 9 1 -1
BITMAP
1E
21
4D
55
AA
BA
AC
80
78
ENDCHAR
STARTCHAR c65
ENCODING -1 65
SWIDTH 193 0
DWIDTH 6 0
BBX 6 8 0 0
BITMAP
08
18
28
28
78
48
88
DC
ENDCHAR
STARTCHAR c66
ENCODING -1 66
SWIDTH 193 0
DWIDTH 6 0
BBX 6 8 0 0
BITMAP
7C
24
28
30
48
48
50
E0
ENDCHAR
STARTCHAR c67
ENCODING -1 67
SWIDTH 193 0
DWIDTH 6 0
BBX 6 8 0 0
BITMAP
1C
24
40
40
80
80
88
70
ENDCHAR
STARTCHAR c68
ENCODING -1 68
SWIDTH 225 0
DWIDTH 7 0
BBX 6 8 0 0
BITMAP
78
24
24
24
48
48
50
E0
ENDCHAR
STARTCHAR c69
ENCODING -1 69
SWIDTH 193 0
DWIDTH 6 0
BBX 6 8 0 0
BITMAP
7C
24
20
38
40
40
48
F8
ENDCHAR
STARTCHAR c70
ENCODING -1 70
SWIDTH 193 0
DWIDTH 6 0
BBX 6 8 0 0
BITMAP
7C
24
20
38
40
40
40
E0
ENDCHAR
STARTCHAR c71
ENCODING -1 71
SWIDTH 225 0
DWIDTH 7 0
BBX 6 8 0 0
BITMAP
1C
24
40
40
9C
88
90
70
ENDCHAR
STARTCHAR c72
ENCODING -1 72
SWIDTH 225 0
DWIDTH 7 0
BBX 7 8 0 0
BITMAP
6E
24
24
3C
48
48
48
EC
ENDCHAR
STARTCHAR c73
ENCODING -1 73
SWIDTH 129 0
DWIDTH 4 0
BBX 4 8 0 0
BITMAP
70
20
20
20
40
40
40
E0
ENDCHAR
STARTCHAR c74
ENCODING -1 74
SWIDTH 129 0
DWIDTH 4 0
BBX 4 8 0 0
BITMAP
70
20
20
20
40
40
40
80
ENDCHAR
STARTCHAR c75
ENCODING -1 75
SWIDTH 193 0
DWIDTH 6 0
BBX 6 8 0 0
BITMAP
EC
48
50
60
A0
90
90
D8
ENDCHAR
STARTCHAR c76
ENCODING -1 76
SWIDTH 193 0
DWIDTH 6 0
BBX 5 8 0 0
BITMAP
70
20
20
20
40
40
48
F8
ENDCHAR
STARTCHAR c77
ENCODING -1 77
SWIDTH 290 0
DWIDTH 9 0
BBX 9 8 0 0
BITMAP
7380
3300
5500
5500
5A00
9A00
9200
D700
ENDCHAR
STARTCHAR c78
ENCODING -1 78
SWIDTH 225 0
DWIDTH 7 0
BBX 7 8 0 0
BITMAP
CE
64
64
64
98
98
98
C8
ENDCHAR
STARTCHAR c79
ENCODING -1 79
SWIDTH 225 0
DWIDTH 7 0
BBX 6 8 0 0
BITMAP
18
24
44
44
88
88
90
60
ENDCHAR
STARTCHAR c80
ENCODING -1 80
SWIDTH 193 0
DWIDTH 6 0
BBX 6 8 0 0
BITMAP
7C
24
28
30
40
40
40
E0
ENDCHAR
STARTCHAR c81
ENCODING -1 81
SWIDTH 225 0
DWIDTH 7 0
BBX 6 10 0 -2
BITMAP
18
24
44
44
88
88
90
60
E4
18
ENDCHAR
STARTCHAR c82
ENCODING -1 82
SWIDTH 193 0
DWIDTH 6 0
BBX 5 8 0 0
BITMAP
F8
48
50
60
A0
90
90
C8
ENDCHAR
STARTCHAR c83
ENCODING -1 83
SWIDTH 161 0
DWIDTH 5 0
BBX 5 8 0 0
BITMAP
38
48
40
20
20
10
90
E0
ENDCHAR
STARTCHAR c84
ENCODING -1 84
SWIDTH 161 0
DWIDTH 5 0
BBX 5 8 0 0
BITMAP
F8
A8
20
20
40
40
40
E0
ENDCHAR
STARTCHAR c85
ENCODING -1 85
SWIDTH 225 0
DWIDTH 7 0
BBX 7 8 0 0
BITMAP
EE
44
44
44
88
88
90
E0
ENDCHAR
STARTCHAR c86
ENCODING -1 86
SWIDTH 193 0
DWIDTH 6 0
BBX 6 8 0 0
BITMAP
EC
44
48
48
50
50
60
40
ENDCHAR
STARTCHAR c87
ENCODING -1 87
SWIDTH 290 0
DWIDTH 9 0
BBX 9 8 0 0
BITMAP
FD80
4880
4900
4900
5A00
5A00
6C00
4800
ENDCHAR
STARTCHAR c88
ENCODING -1 88
SWIDTH 193 0
DWIDTH 6 0
BBX 6 8 0 0
BITMAP
74
24
28
30
30
50
90
B8
ENDCHAR
STARTCHAR c89
ENCODING -1 89
SWIDTH 161 0
DWIDTH 5 0
BBX 5 8 0 0
BITMAP
D8
48
50
60
40
80
80
C0
ENDCHAR
STARTCHAR c90
ENCODING -1 90
SWIDTH 193 0
DWIDTH 6 0
BBX 6 8 0 0
BITMAP
7C
48
10
10
20
20
48
F8
ENDCHAR
STARTCHAR c91
ENCODING -1 91
SWIDTH 161 0
DWIDTH 5 0
BBX 5 10 0 -2
BITMAP
38
20
20
40
40
40
40
80
80
E0
ENDCHAR
STARTCHAR c92
ENCODING -1 92
SWIDTH 161 0
DWIDTH 5 0
BBX 2 8 1 0
BITMAP
80
80
80
80
40
40
40
40
ENDCHAR
STARTCHAR c93
ENCODING -1 93
SWIDTH 161 0
DWIDTH 5 0
BBX 5 10 0 -2
BITMAP
38
08
08
10
10
10
10
20
20
E0
ENDCHAR
STARTCHAR c94
ENCODING -1 94
SWIDTH 161 0
DWIDTH 5 0
BBX 5 7 0 0
BITMAP
10
30
48
A8
20
40
40
ENDCHAR
STARTCHAR c95
ENCODING -1 95
SWIDTH 193 0
DWIDTH 6 0
BBX 6 1 0 3
BITMAP
FC
ENDCHAR
STARTCHAR c96
ENCODING -1 96
SWIDTH 193 0
DWIDTH 6 0
BBX 2 2 3 7
BITMAP
80
40
ENDCHAR
STARTCHAR c97
ENCODING -1 97
SWIDTH 193 0
DWIDTH 6 0
BBX 5 6 0 0
BITMAP
38
48
88
90
B0
D8
ENDCHAR
STARTCHAR c98
ENCODING -1 98
SWIDTH 193 0
DWIDTH 6 0
BBX 5 9 0 0
BITMAP
60
20
20
58
68
48
88
90
E0
ENDCHAR
STARTCHAR c99
ENCODING -1 99
SWIDTH 129 0
DWIDTH 4 0
BBX 4 6 0 0
BITMAP
30
40
80
80
80
E0
ENDCHAR
STARTCHAR c100
ENCODING -1 100
SWIDTH 193 0
DWIDTH 6 0
BBX 6 9 0 0
BITMAP
0C
04
04
38
48
88
90
B0
D8
ENDCHAR
STARTCHAR c101
ENCODING -1 101
SWIDTH 161 0
DWIDTH 5 0
BBX 4 6 0 0
BITMAP
30
50
E0
80
90
E0
ENDCHAR
STARTCHAR c102
ENCODING -1 102
SWIDTH 96 0
DWIDTH 3 0
BBX 3 12 0 -3
BITMAP
20
40
40
E0
40
40
40
80
80
80
80
80
ENDCHAR
STARTCHAR c103
ENCODING -1 103
SWIDTH 161 0
DWIDTH 5 0
BBX 5 9 0 -3
BITMAP
38
50
50
60
40
70
90
90
E0
ENDCHAR
STARTCHAR c104
ENCODING -1 104
SWIDTH 193 0
DWIDTH 6 0
BBX 5 9 0 0
BITMAP
60
20
20
58
68
48
90
90
98
ENDCHAR
STARTCHAR c105
ENCODING -1 105
SWIDTH 96 0
DWIDTH 3 0
BBX 3 9 0 0
BITMAP
20
00
00
C0
40
40
80
80
C0
ENDCHAR
STARTCHAR c106
ENCODING -1 106
SWIDTH 96 0
DWIDTH 3 0
BBX 3 12 0 -3
BITMAP
20
00
00
C0
40
40
80
80
80
80
80
80
ENDCHAR
STARTCHAR c107
ENCODING -1 107
SWIDTH 193 0
DWIDTH 6 0
BBX 6 9 0 0
BITMAP
60
20
20
4C
48
50
A0
90
98
ENDCHAR
STARTCHAR c108
ENCODING -1 108
SWIDTH 96 0
DWIDTH 3 0
BBX 3 9 0 0
BITMAP
60
20
20
40
40
40
80
80
C0
ENDCHAR
STARTCHAR c109
ENCODING -1 109
SWIDTH 290 0
DWIDTH 9 0
BBX 8 6 0 0
BITMAP
DB
6D
49
92
92
93
ENDCHAR
STARTCHAR c110
ENCODING -1 110
SWIDTH 193 0
DWIDTH 6 0
BBX 5 6 0 0
BITMAP
D8
68
48
90
90
98
ENDCHAR
STARTCHAR c111
ENCODING -1 111
SWIDTH 193 0
DWIDTH 6 0
BBX 5 6 0 0
BITMAP
38
48
88
88
90
E0
ENDCHAR
STARTCHAR c112
ENCODING -1 112
SWIDTH 193 0
DWIDTH 6 0
BBX 5 9 0 -3
BITMAP
D8
68
48
88
90
E0
80
80
80
ENDCHAR
STARTCHAR c113
ENCODING -1 113
SWIDTH 193 0
DWIDTH 6 0
BBX 5 9 0 -3
BITMAP
38
48
88
90
B0
D0
20
20
70
ENDCHAR
STARTCHAR c114
ENCODING -1 114
SWIDTH 129 0
DWIDTH 4 0
BBX 4 6 0 0
BITMAP
D0
70
40
80
80
80
ENDCHAR
STARTCHAR c115
ENCODING -1 115
SWIDTH 161 0
DWIDTH 5 0
BBX 4 6 0 0
BITMAP
30
50
40
20
A0
C0
ENDCHAR
STARTCHAR c116
ENCODING -1 116
SWIDTH 129 0
DWIDTH 4 0
BBX 4 8 0 0
BITMAP
20
20
F0
40
40
80
A0
C0
ENDCHAR
STARTCHAR c117
ENCODING -1 117
SWIDTH 193 0
DWIDTH 6 0
BBX 5 6 0 0
BITMAP
C8
48
48
90
B0
D8
ENDCHAR
STARTCHAR c118
ENCODING -1 118
SWIDTH 161 0
DWIDTH 5 0
BBX 5 6 0 0
BITMAP
D8
48
50
50
60
40
ENDCHAR
STARTCHAR c119
ENCODING -1 119
SWIDTH 225 0
DWIDTH 7 0
BBX 7 6 0 0
BITMAP
F6
52
54
54
78
50
ENDCHAR
STARTCHAR c120
ENCODING -1 120
SWIDTH 161 0
DWIDTH 5 0
BBX 5 6 0 0
BITMAP
68
28
30
60
A0
B0
ENDCHAR
STARTCHAR c121
ENCODING -1 121
SWIDTH 161 0
DWIDTH 5 0
BBX 5 9 0 -3
BITMAP
D8
48
50
50
60
40
80
80
80
ENDCHAR
STARTCHAR c122
ENCODING -1 122
SWIDTH 161 0
DWIDTH 5 0
BBX 4 6 0 0
BITMAP
70
10
20
40
80
E0
ENDCHAR
STARTCHAR c123
ENCODING -1 123
SWIDTH 161 0
DWIDTH 5 0
BBX 5 10 0 -2
BITMAP
18
20
20
20
C0
40
40
80
80
C0
ENDCHAR
STARTCHAR c124
ENCODING -1 124
SWIDTH 129 0
DWIDTH 4 0
BBX 3 10 0 -2
BITMAP
20
20
20
40
40
40
40
80
80
80
ENDCHAR
STARTCHAR c125
ENCODING -1 125
SWIDTH 161 0
DWIDTH 5 0
BBX 5 10 0 -2
BITMAP
18
08
08
10
10
18
20
20
20
C0
ENDCHAR
STARTCHAR c126
ENCODING -1 126
SWIDTH 225 0
DWIDTH 7 0
BBX 7 3 0 2
BITMAP
32
54
98
ENDCHAR
STARTCHAR c128
ENCODING -1 128
SWIDTH 193 0
DWIDTH 6 0
BBX 6 9 0 0
BITMAP
24
08
18
28
28
78
48
88
DC
ENDCHAR
STARTCHAR c129
ENCODING -1 129
SWIDTH 225 0
DWIDTH 7 0
BBX 7 9 0 0
BITMAP
22
18
24
44
44
88
88
90
60
ENDCHAR
STARTCHAR c130
ENCODING -1 130
SWIDTH 225 0
DWIDTH 7 0
BBX 7 8 0 0
BITMAP
EE
54
54
44
88
88
90
E0
ENDCHAR
STARTCHAR c131
ENCODING -1 131
SWIDTH 193 0
DWIDTH 6 0
BBX 5 8 0 0
BITMAP
28
00
38
48
88
90
B0
D8
ENDCHAR
STARTCHAR c132
ENCODING -1 132
SWIDTH 193 0
DWIDTH 6 0
BBX 5 8 0 0
BITMAP
28
00
38
48
88
88
90
E0
ENDCHAR
STARTCHAR c133
ENCODING -1 133
SWIDTH 193 0
DWIDTH 6 0
BBX 5 8 0 0
BITMAP
28
00
C8
48
48
90
B0
D8
ENDCHAR
STARTCHAR c134
ENCODING -1 134
SWIDTH 193 0
DWIDTH 6 0
BBX 6 9 0 0
BITMAP
0C
14
00
38
48
88
90
B0
D8
ENDCHAR
STARTCHAR c135
ENCODING -1 135
SWIDTH 161 0
DWIDTH 5 0
BBX 5 9 0 0
BITMAP
18
28
00
30
50
E0
80
90
E0
ENDCHAR
STARTCHAR c136
ENCODING -1 136
SWIDTH 96 0
DWIDTH 3 0
BBX 3 9 0 0
BITMAP
60
A0
00
C0
40
40
80
80
C0
ENDCHAR
STARTCHAR c137
ENCODING -1 137
SWIDTH 193 0
DWIDTH 6 0
BBX 5 9 0 0
BITMAP
18
28
00
38
48
88
88
90
E0
ENDCHAR
STARTCHAR c138
ENCODING -1 138
SWIDTH 193 0
DWIDTH 6 0
BBX 5 9 0 0
BITMAP
18
28
00
C8
48
48
90
B0
D8
ENDCHAR
STARTCHAR c139
ENCODING -1 139
SWIDTH 193 0
DWIDTH 6 0
BBX 5 9 0 0
BITMAP
10
08
00
38
48
88
90
B0
D8
ENDCHAR
STARTCHAR c140
ENCODING -1 140
SWIDTH 161 0
DWIDTH 5 0
BBX 4 9 0 0
BITMAP
20
10
00
30
50
E0
80
90
E0
ENDCHAR
STARTCHAR c141
ENCODING -1 141
SWIDTH 96 0
DWIDTH 3 0
BBX 3 9 0 0
BITMAP
40
20
00
C0
40
40
80
80
C0
ENDCHAR
STARTCHAR c142
ENCODING -1 142
SWIDTH 193 0
DWIDTH 6 0
BBX 5 9 0 0
BITMAP
10
08
00
38
48
88
88
90
E0
ENDCHAR
STARTCHAR c143
ENCODING -1 143
SWIDTH 193 0
DWIDTH 6 0
BBX 5 9 0 0
BITMAP
20
10
00
C8
48
48
90
B0
D8
ENDCHAR
STARTCHAR c144
ENCODING -1 144
SWIDTH 161 0
DWIDTH 5 0
BBX 5 9 0 0
BITMAP
08
10
00
30
50
E0
80
90
E0
ENDCHAR
STARTCHAR c145
ENCODING -1 145
SWIDTH 161 0
DWIDTH 5 0
BBX 5 8 0 0
BITMAP
28
00
30
50
E0
80
90
E0
ENDCHAR
STARTCHAR c146
ENCODING -1 146
SWIDTH 96 0
DWIDTH 3 0
BBX 3 8 0 0
BITMAP
A0
00
C0
40
40
80
80
C0
ENDCHAR
STARTCHAR c147
ENCODING -1 147
SWIDTH 129 0
DWIDTH 4 0
BBX 4 8 0 -2
BITMAP
30
40
80
80
80
E0
40
40
ENDCHAR
STARTCHAR c148
ENCODING -1 148
SWIDTH 193 0
DWIDTH 6 0
BBX 5 9 0 0
BITMAP
08
10
00
38
48
88
90
B0
D8
ENDCHAR
STARTCHAR c149
ENCODING -1 149
SWIDTH 193 0
DWIDTH 6 0
BBX 6 9 0 0
BITMAP
34
58
00
D8
68
48
90
90
98
ENDCHAR
STARTCHAR c155
ENCODING -1 155
SWIDTH 193 0
DWIDTH 6 0
BBX 6 1 0 3
BITMAP
FC
ENDCHAR
STARTCHAR c159
ENCODING -1 159
SWIDTH 161 0
DWIDTH 5 0
BBX 0 0 0 0
BITMAP
ENDCHAR
ENDFONT
